<?xml version="1.0" encoding="utf-8"?>
<!-- Generator: Adobe Illustrator 13.0.0, SVG Export Plug-In . SVG Version: 6.00 Build 14948)  -->
<!DOCTYPE svg PUBLIC "-//W3C//DTD SVG 1.1//EN" "http://www.w3.org/Graphics/SVG/1.1/DTD/svg11.dtd">
<svg version="1.1" id="Calque_1" xmlns="http://www.w3.org/2000/svg" xmlns:xlink="http://www.w3.org/1999/xlink" x="0px" y="0px"
	 width="664.108px" height="160.307px" viewBox="0 0 664.108 160.307" enable-background="new 0 0 664.108 160.307"
	 xml:space="preserve">
<path fill="none" d="M466.328,113.177c0-0.995-0.269-1.679-0.806-2.049c-0.538-0.37-1.498-0.556-2.879-0.556h-3.269v5.45h3.204
	c1.453,0,2.441-0.226,2.965-0.677C466.066,114.895,466.328,114.173,466.328,113.177z"/>
<polygon fill="none" points="434.233,53.292 425.836,71.658 442.244,71.658 "/>
<path fill="none" d="M495.997,110.615h-2.572v10.441h2.855c1.846,0,3.26-0.439,4.24-1.317c0.981-0.88,1.472-2.177,1.472-3.892
	C501.992,112.359,499.994,110.615,495.997,110.615z"/>
<polygon fill="none" points="338.03,53.292 329.635,71.658 346.042,71.658 "/>
<path fill="none" d="M389.006,113.799c1.643-0.814,2.464-1.569,2.464-2.268c0-0.581-0.193-1.014-0.578-1.298
	c-0.385-0.282-0.821-0.425-1.307-0.425c-0.488,0-0.925,0.152-1.31,0.458s-0.577,0.661-0.577,1.068c0,0.406,0.099,0.774,0.295,1.101
	C388.188,112.763,388.527,113.217,389.006,113.799z"/>
<polygon fill="none" points="235.987,53.292 227.59,71.658 243.998,71.658 "/>
<path fill="none" d="M393.023,54.377c0-5.527-3.756-8.291-11.265-8.291h-2.903v17.141h2.588
	C389.162,63.227,393.023,60.277,393.023,54.377z"/>
<path fill="none" d="M309.133,111.226c-0.654-0.436-1.679-0.654-3.074-0.654h-2.615v6.104h2.986c1.425,0,2.395-0.272,2.911-0.817
	c0.516-0.545,0.774-1.344,0.774-2.398C310.114,112.407,309.788,111.662,309.133,111.226z"/>
<path fill="none" d="M385.737,119.313c0,0.654,0.274,1.188,0.827,1.603c0.552,0.414,1.286,0.621,2.201,0.621
	c0.917,0,1.89-0.421,2.922-1.264c-1.468-1.54-2.631-2.835-3.488-3.881C386.558,117.278,385.737,118.253,385.737,119.313z"/>
<path fill="none" d="M61.107,77.829c0,0.211-0.004,0.419-0.008,0.629C61.103,78.248,61.107,78.04,61.107,77.829
	c0-0.268-0.007-0.534-0.01-0.802c0,0.002,0,0.003,0,0.005C61.1,77.298,61.107,77.563,61.107,77.829z"/>
<path fill="none" d="M552.693,51.018c-3.567-3.289-8.827-4.932-15.777-4.932h-3.673v38.691h3.673c3.662,0,6.705-0.386,9.132-1.154
	c2.425-0.817,4.617-2.111,6.576-3.883c4.011-3.662,6.017-8.432,6.017-14.309C558.641,59.507,556.658,54.704,552.693,51.018z"/>
<polygon fill="none" points="586.452,71.658 602.86,71.658 594.849,53.292 "/>
<path fill="#575757" d="M193.494,102.734c0,4.591-0.49,7.808-1.47,9.647c-0.933,1.841-2.612,2.762-5.038,2.762
	c-1.727,0-3.58-0.663-5.562-1.994l-3.988,6.984c2.961,1.779,6.145,2.672,9.55,2.672c4.501,0,8.117-1.598,10.845-4.793
	c1.399-1.609,2.391-3.581,2.974-5.912c0.583-2.053,0.875-5.165,0.875-9.341V38.425h-8.186V102.734z"/>
<path fill="#575757" d="M224.198,79.32h23.123l5.668,13.118h8.921l-25.783-57.407L209.4,92.438h8.781L224.198,79.32z
	 M235.987,53.292l8.011,18.366H227.59L235.987,53.292z"/>
<path fill="#575757" d="M291.435,45.037c5.037,0,9.911,1.971,14.621,5.912V41.31c-4.524-2.624-9.211-3.935-14.062-3.935
	c-8.886,0-16.127,3.3-21.725,9.899c-4.547,5.388-6.821,11.521-6.821,18.401c0,7.673,2.717,14.226,8.15,19.66
	c5.458,5.387,12.046,8.081,19.766,8.081c5.13,0,10.028-1.324,14.692-3.97v-9.85c-1.328,1.12-2.594,2.076-3.795,2.869
	c-1.202,0.793-2.361,1.424-3.48,1.89c-2.006,0.932-4.443,1.398-7.312,1.398c-5.549,0-10.237-1.946-14.062-5.842
	c-3.826-3.895-5.737-8.675-5.737-14.342c0-5.737,1.912-10.587,5.737-14.553C281.207,47.031,285.883,45.037,291.435,45.037z"/>
<path fill="#575757" d="M320.225,92.438l6.017-13.118h23.124l5.667,13.118h8.92L338.17,35.031l-26.726,57.407H320.225z
	 M338.03,53.292l8.012,18.366h-16.407L338.03,53.292z"/>
<path fill="#575757" d="M397.676,64.137c2.19-2.752,3.289-6.04,3.289-9.865c0-4.898-1.75-8.839-5.249-11.824
	c-3.172-2.682-8.325-4.023-15.461-4.023h-9.551v54.013h8.151V70.329h1.47l15.427,22.109h9.969L388.999,69.42
	C392.591,68.65,395.483,66.888,397.676,64.137z M378.855,63.227V46.086h2.903c7.509,0,11.265,2.764,11.265,8.291
	c0,5.9-3.861,8.85-11.58,8.85H378.855z"/>
<path fill="#575757" d="M445.566,79.32l5.668,13.118h8.92l-25.78-57.407l-26.729,57.407h8.781l6.018-13.118H445.566z
	 M434.233,53.292l8.011,18.366h-16.408L434.233,53.292z"/>
<polygon fill="#575757" points="506.296,75.962 466.906,34.752 466.906,92.438 475.058,92.438 475.058,54.622 514.448,95.726 
	514.448,38.425 506.296,38.425 "/>
<path fill="#575757" d="M558.501,45.386c-2.752-2.519-5.819-4.303-9.201-5.353c-3.147-1.072-7.438-1.609-12.872-1.609h-11.335
	v54.013h11.193c5.481,0,9.714-0.503,12.699-1.505c3.195-1.002,6.25-2.786,9.166-5.352c5.807-5.132,8.711-11.847,8.711-20.15
	C566.862,57.153,564.074,50.472,558.501,45.386z M552.624,79.74c-1.959,1.771-4.151,3.065-6.576,3.883
	c-2.427,0.769-5.47,1.154-9.132,1.154h-3.673V46.086h3.673c6.95,0,12.21,1.644,15.777,4.932c3.965,3.686,5.947,8.489,5.947,14.413
	C558.641,71.308,556.635,76.078,552.624,79.74z"/>
<path fill="#575757" d="M611.85,92.438h8.92l-25.782-57.407L568.26,92.438h8.782l6.016-13.118h23.124L611.85,92.438z
	 M586.452,71.658l8.396-18.366l8.012,18.366H586.452z"/>
<path fill="#575757" d="M646.797,60.3l-5.388-2.205c-3.919-1.611-5.877-3.734-5.877-6.372c0-1.913,0.746-3.501,2.24-4.76
	c1.491-1.284,3.369-1.925,5.631-1.925c1.842,0,3.346,0.372,4.513,1.119c1.118,0.653,2.296,2.052,3.533,4.198l6.611-3.918
	c-3.497-6.04-8.36-9.06-14.587-9.06c-4.617,0-8.478,1.375-11.579,4.125c-3.103,2.727-4.653,6.118-4.653,10.172
	c0,6.013,3.696,10.581,11.09,13.704l5.213,2.167c1.351,0.583,2.518,1.195,3.497,1.835c0.98,0.641,1.778,1.329,2.396,2.063
	c0.617,0.734,1.072,1.537,1.364,2.412c0.292,0.875,0.438,1.835,0.438,2.883c0,2.611-0.84,4.768-2.521,6.469
	c-1.679,1.701-3.788,2.551-6.331,2.551c-3.219,0-5.667-1.166-7.346-3.496c-0.934-1.213-1.586-3.406-1.96-6.577l-8.256,1.819
	c0.747,5.036,2.624,8.948,5.633,11.733c3.056,2.787,6.928,4.183,11.614,4.183c4.944,0,9.083-1.633,12.419-4.901
	c3.312-3.243,4.967-7.352,4.967-12.323c0-3.711-1.014-6.844-3.042-9.399C654.389,64.238,651.182,62.073,646.797,60.3z"/>
<path fill="#575757" d="M294.539,116.152c-0.792-0.683-1.97-1.213-3.532-1.591c-1.562-0.378-2.583-0.73-3.063-1.058
	c-0.48-0.327-0.719-0.799-0.719-1.417c0-0.617,0.239-1.078,0.719-1.384c0.479-0.306,1.093-0.458,1.842-0.458
	s1.507,0.131,2.278,0.393c0.77,0.261,1.381,0.596,1.832,1.003l1.373-1.94c-0.698-0.582-1.526-1.031-2.485-1.352
	c-0.959-0.32-1.926-0.479-2.899-0.479c-1.511,0-2.779,0.382-3.804,1.145c-1.025,0.763-1.537,1.85-1.537,3.259
	s0.451,2.457,1.352,3.14c0.45,0.363,0.966,0.657,1.547,0.882c0.582,0.226,1.432,0.473,2.551,0.742
	c1.118,0.269,1.908,0.566,2.366,0.894c0.457,0.327,0.686,0.784,0.686,1.372c0,0.59-0.244,1.062-0.73,1.418
	c-0.487,0.356-1.145,0.534-1.973,0.534c-1.657,0-3.255-0.668-4.796-2.006l-1.614,1.94c1.846,1.643,3.961,2.463,6.344,2.463
	c1.628,0,2.943-0.414,3.946-1.242c1.003-0.828,1.504-1.907,1.504-3.237S295.331,116.836,294.539,116.152z"/>
<path fill="#575757" d="M311.161,109.568c-1.062-0.886-2.747-1.329-5.058-1.329h-5.232v15.238h2.573v-4.469h2.703
	c2.238,0,3.898-0.428,4.981-1.286c1.082-0.857,1.624-2.21,1.624-4.055C312.752,111.822,312.222,110.456,311.161,109.568z
	 M309.34,115.858c-0.516,0.545-1.486,0.817-2.911,0.817h-2.986v-6.104h2.615c1.395,0,2.419,0.219,3.074,0.654
	c0.655,0.436,0.981,1.181,0.981,2.233C310.114,114.514,309.856,115.313,309.34,115.858z"/>
<rect x="317.744" y="108.239" fill="#575757" width="2.572" height="15.238"/>
<path fill="#575757" d="M333.658,110.397c0.872,0,1.631,0.139,2.278,0.414c0.646,0.276,1.334,0.763,2.06,1.461l1.635-1.787
	c-1.583-1.745-3.557-2.616-5.917-2.616c-2.363,0-4.316,0.756-5.865,2.267c-1.547,1.511-2.321,3.401-2.321,5.668
	c0,2.268,0.758,4.143,2.278,5.625c1.519,1.481,3.429,2.223,5.732,2.223s4.263-0.894,5.875-2.681l-1.656-1.7
	c-0.698,0.653-1.366,1.13-2.006,1.428c-0.639,0.297-1.402,0.446-2.289,0.446c-1.424,0-2.655-0.52-3.694-1.559
	c-1.04-1.038-1.56-2.332-1.56-3.88s0.523-2.819,1.571-3.815C330.824,110.895,332.117,110.397,333.658,110.397z"/>
<polygon fill="#575757" points="347.086,116.981 354.39,116.981 354.39,114.692 347.086,114.692 347.086,110.659 355.218,110.659 
	355.218,108.239 344.515,108.239 344.515,123.477 355.479,123.477 355.479,121.056 347.086,121.056 "/>
<path fill="#575757" d="M370.097,116.152c-0.793-0.683-1.971-1.213-3.532-1.591c-1.562-0.378-2.584-0.73-3.063-1.058
	c-0.479-0.327-0.719-0.799-0.719-1.417c0-0.617,0.24-1.078,0.719-1.384c0.479-0.306,1.094-0.458,1.842-0.458
	c0.749,0,1.509,0.131,2.278,0.393c0.771,0.261,1.381,0.596,1.832,1.003l1.373-1.94c-0.698-0.582-1.526-1.031-2.485-1.352
	s-1.927-0.479-2.899-0.479c-1.511,0-2.78,0.382-3.805,1.145s-1.537,1.85-1.537,3.259s0.451,2.457,1.353,3.14
	c0.45,0.363,0.966,0.657,1.548,0.882c0.581,0.226,1.431,0.473,2.551,0.742c1.118,0.269,1.907,0.566,2.364,0.894
	c0.458,0.327,0.687,0.784,0.687,1.372c0,0.59-0.243,1.062-0.729,1.418c-0.487,0.356-1.145,0.534-1.974,0.534
	c-1.655,0-3.255-0.668-4.796-2.006l-1.612,1.94c1.846,1.643,3.96,2.463,6.344,2.463c1.627,0,2.943-0.414,3.945-1.242
	c1.003-0.828,1.504-1.907,1.504-3.237S370.888,116.836,370.097,116.152z"/>
<path fill="#575757" d="M394.674,120.185c0.48-0.755,0.907-1.635,1.286-2.638l-1.787-1.265c-0.247,0.888-0.596,1.665-1.047,2.333
	c-0.727-0.755-1.67-1.846-2.833-3.271c2.325-1.278,3.487-2.638,3.487-4.077c0-1.074-0.407-1.91-1.221-2.506
	c-0.814-0.596-1.803-0.894-2.964-0.894c-1.164,0-2.174,0.312-3.031,0.937c-0.858,0.625-1.286,1.521-1.286,2.682
	c0,0.669,0.119,1.221,0.36,1.657c0.239,0.436,0.657,0.995,1.254,1.679c-2.384,1.279-3.576,2.739-3.576,4.381
	c0,1.382,0.502,2.468,1.504,3.259c1.004,0.793,2.216,1.188,3.64,1.188c1.92,0,3.519-0.589,4.798-1.765l2.005,1.983l1.635-1.526
	C395.997,121.502,395.255,120.782,394.674,120.185z M388.275,110.266c0.385-0.306,0.821-0.458,1.31-0.458
	c0.485,0,0.922,0.143,1.307,0.425c0.385,0.284,0.578,0.717,0.578,1.298c0,0.698-0.821,1.453-2.464,2.268
	c-0.479-0.582-0.817-1.035-1.013-1.363c-0.196-0.326-0.295-0.694-0.295-1.101C387.698,110.927,387.891,110.572,388.275,110.266z
	 M388.766,121.537c-0.915,0-1.649-0.207-2.201-0.621c-0.553-0.414-0.827-0.948-0.827-1.603c0-1.061,0.82-2.035,2.462-2.921
	c0.857,1.046,2.021,2.341,3.488,3.881C390.655,121.116,389.683,121.537,388.766,121.537z"/>
<rect x="409.388" y="108.239" fill="#575757" width="2.572" height="15.238"/>
<polygon fill="#575757" points="429.574,119.618 420.725,108.239 418.152,108.239 418.152,123.477 420.725,123.477 420.725,112.358 
	429.357,123.477 432.147,123.477 432.147,108.239 429.574,108.239 "/>
<path fill="#575757" d="M448.889,120.251c-0.973,0.625-2.184,0.938-3.629,0.938c-1.447,0-2.678-0.49-3.695-1.472
	c-1.017-0.98-1.525-2.281-1.525-3.902c0-1.62,0.522-2.928,1.568-3.924c1.047-0.995,2.34-1.493,3.881-1.493
	c0.8,0,1.501,0.098,2.104,0.295c0.603,0.195,1.203,0.549,1.799,1.057l1.373-1.961c-1.454-1.279-3.277-1.919-5.472-1.919
	c-2.195,0-4.065,0.756-5.613,2.267s-2.321,3.401-2.321,5.668c0,2.268,0.759,4.143,2.276,5.625c1.52,1.481,3.406,2.223,5.658,2.223
	c2.674,0,4.731-0.791,6.17-2.376v-5.21h-2.573V120.251z"/>
<path fill="#575757" d="M468.967,113.188c0-1.729-0.502-2.987-1.505-3.772c-1.002-0.783-2.667-1.177-4.992-1.177h-5.667v15.238
	h2.572v-5.124h3.378l3.641,5.124h3.271l-3.989-5.537C467.868,117.286,468.967,115.703,468.967,113.188z M462.579,116.022h-3.204
	v-5.45h3.269c1.381,0,2.341,0.186,2.879,0.556c0.537,0.37,0.806,1.054,0.806,2.049c0,0.996-0.262,1.719-0.784,2.169
	C465.021,115.797,464.032,116.022,462.579,116.022z"/>
<polygon fill="#575757" points="477.207,116.981 484.51,116.981 484.51,114.692 477.207,114.692 477.207,110.659 485.337,110.659 
	485.337,108.239 474.635,108.239 474.635,123.477 485.6,123.477 485.6,121.056 477.207,121.056 "/>
<path fill="#575757" d="M502.385,110.233c-1.469-1.329-3.568-1.994-6.3-1.994h-5.232v15.238h5.058c2.935,0,5.116-0.69,6.54-2.071
	c1.425-1.38,2.137-3.255,2.137-5.624C504.587,113.414,503.853,111.564,502.385,110.233z M500.521,119.739
	c-0.98,0.878-2.395,1.317-4.24,1.317h-2.855v-10.441h2.572c3.997,0,5.995,1.744,5.995,5.232
	C501.992,117.562,501.502,118.859,500.521,119.739z"/>
<rect x="509.861" y="108.239" fill="#575757" width="2.573" height="15.238"/>
<polygon fill="#575757" points="521.198,116.981 528.501,116.981 528.501,114.692 521.198,114.692 521.198,110.659 529.329,110.659 
	529.329,108.239 518.626,108.239 518.626,123.477 529.591,123.477 529.591,121.056 521.198,121.056 "/>
<polygon fill="#575757" points="546.268,119.618 537.417,108.239 534.844,108.239 534.844,123.477 537.417,123.477 537.417,112.358 
	546.049,123.477 548.84,123.477 548.84,108.239 546.268,108.239 "/>
<polygon fill="#575757" points="553.592,110.594 558.214,110.594 558.214,123.477 560.785,123.477 560.785,110.594 565.407,110.594 
	565.407,108.239 553.592,108.239 "/>
<path fill="#575757" d="M579.522,116.152c-0.792-0.683-1.97-1.213-3.532-1.591s-2.582-0.73-3.062-1.058
	c-0.479-0.327-0.72-0.799-0.72-1.417c0-0.617,0.24-1.078,0.72-1.384c0.48-0.306,1.094-0.458,1.843-0.458
	c0.748,0,1.507,0.131,2.277,0.393c0.771,0.261,1.381,0.596,1.832,1.003l1.373-1.94c-0.698-0.582-1.526-1.031-2.485-1.352
	c-0.958-0.32-1.926-0.479-2.899-0.479c-1.512,0-2.78,0.382-3.805,1.145c-1.025,0.763-1.536,1.85-1.536,3.259s0.45,2.457,1.351,3.14
	c0.452,0.363,0.968,0.657,1.549,0.882c0.581,0.226,1.432,0.473,2.55,0.742c1.119,0.269,1.908,0.566,2.366,0.894
	s0.687,0.784,0.687,1.372c0,0.59-0.243,1.062-0.73,1.418s-1.145,0.534-1.973,0.534c-1.657,0-3.256-0.668-4.796-2.006l-1.613,1.94
	c1.846,1.643,3.961,2.463,6.344,2.463c1.627,0,2.942-0.414,3.944-1.242c1.004-0.828,1.506-1.907,1.506-3.237
	S580.314,116.836,579.522,116.152z"/>
<rect x="209.443" y="114.267" fill="#575757" width="66.719" height="3.373"/>
<rect x="588.558" y="114.267" fill="#575757" width="70.572" height="3.373"/>
<path fill="#F95421" d="M124.901,34.327v41.601c0,17.43-6.466,33.759-18.208,45.978c-11.98,12.47-28.198,19.337-45.665,19.337
	c-7.334,0-14.513-1.2-21.401-3.563l7.392,12.898c4.855,8.473,15.66,11.404,24.132,6.55l78.097-44.753
	c8.473-4.855,11.406-15.659,6.549-24.133L124.901,34.327z"/>
<path fill="#575757" d="M60.856,37.97c15.962,0,29.612,9.902,35.142,23.898V1.63c-3.012-0.017-6.069,0.732-8.872,2.338L9.029,48.721
	c-8.473,4.855-11.405,15.66-6.55,24.132l1.787,3.117h18.823c0-0.076-0.003-0.152-0.003-0.229
	C23.085,54.882,39.997,37.97,60.856,37.97z"/>
<path fill="#FFFFFF" d="M61.098,77.032c-0.003,0.266-0.011,0.531-0.011,0.797c0,0.247,0.007,0.492,0.01,0.739
	c0-0.048,0.001-0.095,0.002-0.143c0,0.011,0,0.021,0,0.032c0.003-0.21,0.008-0.418,0.008-0.629
	C61.107,77.563,61.1,77.298,61.098,77.032z"/>
<path fill="#575757" d="M60.914,83.337c0.109,1.279,0.172,2.571,0.185,3.876c0.013-1.297,0.075-2.582,0.183-3.854
	c0.001,0.015,0.002,0.032,0.003,0.048c1.285-14.787,8.979-27.737,20.29-36.061c-3.533-2.518-7.547-4.403-11.876-5.496
	c-5.392,10.575-8.476,22.521-8.602,35.176c0.002,0.268,0.01,0.534,0.01,0.802c0,0.211-0.004,0.419-0.008,0.629
	c0-0.012,0-0.021,0-0.032c-0.001,0.048-0.002,0.095-0.002,0.143c-0.003-0.247-0.01-0.492-0.01-0.739c0-0.268,0.008-0.534,0.01-0.802
	c0,0.002,0,0.003,0,0.005c0-0.002,0-0.003,0-0.005c-0.126-12.675-3.219-24.64-8.627-35.228c-4.361,1.072-8.406,2.946-11.967,5.462
	c11.375,8.32,19.116,21.309,20.406,36.147C60.911,83.385,60.912,83.361,60.914,83.337z"/>
<path fill="#575757" d="M61.098,77.032c0-0.002,0-0.003,0-0.005c-0.002,0.268-0.01,0.534-0.01,0.802c0,0.247,0.007,0.492,0.01,0.739
	c-0.003-0.247-0.01-0.492-0.01-0.739C61.087,77.563,61.095,77.298,61.098,77.032z"/>
<path fill="#575757" d="M95.332,67.191c-0.997-3.765-2.595-7.283-4.687-10.449C75.892,61.495,64.679,74.131,61.97,89.689
	c0.228,1.521,0.501,3.027,0.814,4.519C67.216,79.761,79.896,68.927,95.332,67.191z"/>
<path fill="#575757" d="M26.626,67.193c15.604,1.763,28.387,12.827,32.675,27.516c0.406-1.872,0.746-3.771,1.017-5.69
	c-2.935-15.381-14.2-27.807-28.925-32.398C29.262,59.818,27.635,63.38,26.626,67.193z"/>
<path fill="#575757" d="M58.42,98.354c-6.436-11.815-18.708-19.994-32.946-20.66c0.636,16.545,12.582,30.19,28.327,33.42
	C55.689,107.037,57.241,102.772,58.42,98.354z"/>
<path fill="#575757" d="M96.483,77.706c-0.176,0.009-0.351,0.024-0.527,0.036l0,0c-0.261,5.815-1.775,11.233-4.275,15.976
	c-1.136,2.156-2.476,4.172-3.994,6.022C92.893,93.812,96.156,86.136,96.483,77.706z"/>
<path fill="#575757" d="M63.775,98.356c1.175,4.399,2.718,8.648,4.597,12.712c7.629-1.614,14.354-5.678,19.315-11.328
	c1.519-1.851,2.858-3.866,3.994-6.022c2.5-4.742,4.014-10.16,4.275-15.976C82.045,78.66,70.094,86.751,63.775,98.356z"/>
<path fill="#575757" d="M95.956,77.742c-0.261,5.815-1.775,11.233-4.275,15.976C94.181,88.975,95.695,83.557,95.956,77.742
	L95.956,77.742z"/>
</svg>
